<?xml version="1.0" standalone="no"?>
<!DOCTYPE svg PUBLIC "-//W3C//DTD SVG 20010904//EN"
 "http://www.w3.org/TR/2001/REC-SVG-20010904/DTD/svg10.dtd">
<svg version="1.0" xmlns="http://www.w3.org/2000/svg"
 width="453.000000pt" height="422.000000pt" viewBox="0 0 453.000000 422.000000"
 preserveAspectRatio="xMidYMid meet">

<g transform="translate(0.000000,422.000000) scale(0.100000,-0.100000)"
fill="#000000" stroke="none">
<path d="M0 2110 l0 -2110 2265 0 2265 0 0 2110 0 2110 -2265 0 -2265 0 0
-2110z m3803 1788 c20 -13 41 -34 48 -48 14 -30 29 -231 17 -245 -4 -5 -8
-378 -8 -830 l0 -821 -26 -52 c-29 -58 -69 -96 -130 -123 -38 -17 -82 -19
-545 -21 -560 -3 -564 -3 -694 65 -73 38 -180 144 -217 213 -102 190 -70 446
75 596 107 111 207 152 362 146 87 -3 109 -8 168 -36 91 -42 177 -129 206
-207 16 -42 21 -79 21 -148 0 -74 4 -98 20 -124 54 -89 175 -79 226 19 11 21
14 75 14 231 l0 204 -29 36 c-25 32 -29 46 -33 127 -5 76 -10 97 -32 130 -53
80 -199 168 -351 212 -69 20 -101 23 -235 22 -138 -1 -165 -4 -245 -28 -102
-31 -235 -98 -313 -158 -247 -191 -397 -549 -362 -864 25 -225 85 -373 205
-504 53 -58 79 -95 87 -124 l11 -42 196 -92 c177 -84 197 -91 206 -76 19 34
58 64 90 70 74 13 140 -54 133 -134 l-3 -37 188 -95 c120 -61 190 -91 195 -84
14 21 57 44 82 44 14 0 38 -7 54 -15 15 -8 32 -15 36 -15 4 0 93 73 197 163
355 305 393 340 393 365 0 13 11 33 24 45 22 21 25 34 33 157 l10 134 66 61
c51 45 67 66 67 87 0 14 12 40 26 57 21 25 33 31 66 31 88 0 130 -99 69 -161
-35 -35 -69 -37 -122 -7 l-38 21 -45 -34 c-70 -54 -76 -70 -76 -208 0 -106 3
-125 20 -149 36 -49 1 -94 -65 -85 -26 4 -44 -8 -145 -98 -63 -55 -155 -135
-205 -177 -120 -102 -248 -215 -257 -227 -4 -5 -8 -27 -8 -48 0 -88 -108 -131
-171 -68 -20 21 -29 39 -29 63 0 33 -1 33 -183 126 -101 50 -188 92 -194 92
-7 0 -28 -9 -47 -21 l-36 -21 0 -239 0 -238 30 -16 c32 -16 60 -61 60 -95 0
-84 -103 -130 -168 -75 -37 31 -46 66 -31 113 11 33 10 37 -12 55 -22 17 -293
206 -509 354 -136 94 -178 130 -184 160 -5 22 -17 32 -53 47 -97 40 -248 217
-333 390 -19 37 -49 113 -69 169 l-36 102 -138 3 -137 3 -21 -36 c-26 -44 -46
-55 -97 -55 -33 0 -45 6 -66 32 -15 18 -32 39 -38 47 -16 20 -203 8 -228 -14
-32 -29 -90 -9 -90 31 0 52 66 76 92 34 12 -18 24 -20 125 -20 87 0 113 3 113
13 0 16 47 61 73 70 16 6 17 31 17 335 l0 328 -35 17 c-18 9 -42 28 -51 42
-16 24 -20 25 -116 25 -85 0 -104 -3 -125 -20 -32 -25 -55 -25 -78 0 -37 41
11 104 61 81 13 -6 24 -15 24 -21 0 -6 41 -10 109 -10 l109 0 10 29 c18 50 47
71 98 71 37 0 51 -5 75 -29 16 -16 29 -36 29 -45 0 -23 30 -27 184 -24 111 2
140 6 147 18 5 8 22 49 40 90 126 300 369 555 671 703 70 34 127 67 128 72 0
6 -13 18 -29 28 -23 14 -54 17 -160 17 l-130 0 -16 -29 c-41 -80 -139 -82
-185 -4 l-19 33 -317 0 -317 0 -32 -37 c-26 -31 -38 -37 -70 -37 -75 0 -114
96 -60 149 46 47 126 27 148 -37 6 -17 31 -18 325 -18 l319 0 24 37 c35 54 72
70 123 52 31 -11 46 -23 59 -51 l19 -38 142 0 141 0 37 -30 36 -30 114 29
c160 42 339 57 476 42 141 -16 252 -43 365 -88 74 -29 106 -37 163 -37 61 -1
76 3 112 26 46 31 164 201 155 224 -4 10 4 14 28 15 19 1 45 5 59 9 49 16 107
11 143 -12z m-3259 -503 l23 -25 391 0 390 0 32 27 c26 22 36 25 58 17 22 -8
28 -17 30 -47 3 -31 -1 -39 -23 -49 -22 -10 -30 -8 -55 10 -29 22 -34 22 -426
22 -381 0 -397 -1 -421 -20 -31 -24 -51 -25 -75 -3 -25 22 -23 59 4 77 31 22
45 20 72 -9z m944 -2332 c-5 -26 -38 -29 -38 -4 0 15 6 21 21 21 14 0 19 -5
17 -17z m192 -109 l0 -126 -24 6 c-14 3 -28 2 -31 -4 -10 -17 -54 -11 -75 10
-22 22 -28 97 -9 131 14 26 48 39 77 28 21 -8 22 -6 22 36 0 38 3 45 20 45 19
0 20 -7 20 -126z m-1207 76 c22 -24 27 -40 27 -80 0 -65 -13 -96 -49 -115 -35
-18 -61 -19 -94 -4 -32 14 -47 42 -53 97 -13 119 94 183 169 102z m756 29 c30
-11 51 -35 51 -58 0 -19 -35 -12 -48 9 -7 11 -23 20 -36 20 -41 0 -56 -25 -56
-90 0 -52 3 -62 25 -76 38 -25 75 -12 75 26 0 23 -4 30 -20 30 -11 0 -20 7
-20 15 0 11 11 15 40 15 l40 0 0 -49 c0 -58 -13 -72 -75 -78 -39 -5 -47 -2
-75 25 -27 27 -30 37 -30 92 0 73 11 97 53 115 39 17 37 17 76 4z m-565 -70
c22 -18 26 -28 26 -75 0 -69 -25 -99 -76 -91 -33 6 -34 5 -34 -29 0 -27 -4
-34 -20 -34 -19 0 -20 7 -20 121 0 121 0 121 23 116 12 -3 31 -1 42 3 29 12
30 12 59 -11z m169 12 c26 -10 53 -62 43 -86 -4 -11 -20 -15 -56 -15 -37 0
-50 -4 -50 -15 0 -21 34 -36 69 -29 35 7 42 -9 12 -26 -31 -16 -66 -12 -95 11
-45 35 -34 138 17 159 29 12 32 12 60 1z m215 -19 c7 -9 12 -45 12 -84 0 -61
-2 -68 -20 -68 -18 0 -20 7 -20 58 0 68 -9 85 -41 80 -22 -3 -24 -8 -27 -70
-3 -60 -5 -68 -22 -68 -18 0 -20 7 -20 86 l0 87 28 -6 c15 -3 34 -2 42 3 19
12 51 3 68 -18z m372 9 c0 -12 -9 -21 -25 -25 -23 -6 -25 -10 -25 -71 0 -58
-2 -65 -20 -65 -18 0 -20 7 -20 86 0 86 0 86 24 82 14 -3 31 -1 38 3 20 13 28
11 28 -10z m70 -76 c0 -78 -2 -85 -20 -85 -18 0 -20 7 -20 85 0 78 2 85 20 85
18 0 20 -7 20 -85z m-770 -324 c0 -39 0 -40 33 -34 28 4 37 1 55 -22 29 -37
30 -103 1 -139 -21 -26 -62 -35 -74 -16 -3 6 -17 7 -31 4 l-24 -6 0 126 c0
119 1 126 20 126 17 0 20 -7 20 -39z m-370 -76 l0 -105 55 0 c42 0 55 -3 55
-15 0 -12 -15 -15 -75 -15 l-75 0 0 120 c0 113 1 120 20 120 19 0 20 -7 20
-105z m258 28 c16 -14 21 -34 25 -91 l4 -74 -25 5 c-14 3 -36 0 -49 -6 -38
-17 -73 5 -73 46 0 43 15 57 62 57 31 0 38 4 38 19 0 26 -29 35 -50 16 -19
-17 -36 -19 -45 -6 -9 16 37 51 66 51 15 0 36 -8 47 -17z m374 0 c20 -18 24
-43 6 -43 -6 0 -19 7 -29 16 -21 18 -49 12 -49 -10 0 -9 16 -20 40 -26 22 -6
45 -20 51 -32 29 -55 -54 -102 -109 -61 -14 10 -28 25 -30 31 -6 18 29 14 50
-5 14 -12 24 -14 34 -8 19 12 20 28 2 36 -62 27 -73 36 -76 61 -6 48 70 77
110 41z"/>
<path d="M975 2750 c-9 -17 -31 -38 -50 -47 l-35 -17 0 -317 c0 -175 3 -324 6
-333 3 -9 12 -16 18 -16 15 0 50 -38 59 -62 6 -16 22 -18 148 -18 l141 0 -6
26 c-18 72 -36 231 -36 326 0 131 13 230 49 370 16 59 26 110 23 113 -3 3 -72
5 -153 5 l-148 0 -16 -30z"/>
<path d="M2047 1483 c-4 -3 -7 -17 -7 -31 0 -109 -92 -205 -211 -219 -27 -3
-52 -9 -54 -13 -13 -21 55 -73 495 -377 216 -150 222 -153 248 -147 12 4 25
16 28 29 3 12 4 120 2 240 l-3 218 -39 22 c-40 22 -65 56 -66 88 0 14 -47 41
-184 108 -184 90 -197 95 -209 82z"/>
<path d="M1576 955 c-13 -35 -6 -84 13 -95 37 -19 52 -2 49 54 -3 47 -5 51
-29 54 -17 2 -29 -3 -33 -13z"/>
<path d="M359 1013 c-8 -9 -14 -39 -14 -70 0 -46 4 -58 24 -74 23 -19 54 -18
75 2 18 16 19 107 2 134 -19 29 -66 34 -87 8z"/>
<path d="M587 964 c-14 -14 -7 -91 9 -105 28 -23 49 1 49 57 0 45 -2 49 -25
52 -14 2 -29 0 -33 -4z"/>
<path d="M777 963 c-18 -17 -5 -33 28 -33 37 0 43 8 23 28 -13 13 -41 16 -51
5z"/>
<path d="M724 506 c-3 -8 -4 -31 -2 -52 2 -32 7 -40 27 -42 13 -2 28 2 32 10
10 15 12 60 3 82 -8 20 -53 21 -60 2z"/>
<path d="M537 453 c-4 -3 -7 -15 -7 -25 0 -30 54 -21 58 10 3 17 -1 22 -21 22
-13 0 -27 -3 -30 -7z"/>
</g>
</svg>
