<?xml version="1.0" standalone="no"?>
<!DOCTYPE svg PUBLIC "-//W3C//DTD SVG 20010904//EN"
 "http://www.w3.org/TR/2001/REC-SVG-20010904/DTD/svg10.dtd">
<svg version="1.0" xmlns="http://www.w3.org/2000/svg"
 width="410.000000pt" height="391.000000pt" viewBox="0 0 410.000000 391.000000"
 preserveAspectRatio="xMidYMid meet">

<g transform="translate(0.000000,391.000000) scale(0.100000,-0.100000)"
fill="#000000" stroke="none">
<path d="M12 1969 l3 -1942 1150 2 c657 1 1181 6 1225 12 227 28 439 93 620
188 172 91 176 93 346 220 83 63 260 242 331 336 152 204 263 433 322 670 56
225 72 550 38 776 -40 265 -150 555 -287 760 -56 84 -189 249 -201 249 -5 0
-9 -318 -9 -767 -1 -615 -4 -775 -14 -806 -20 -55 -61 -103 -114 -134 l-47
-28 -468 -3 c-297 -2 -489 1 -525 8 -148 27 -297 140 -360 271 -136 285 22
617 321 679 178 36 384 -69 452 -232 10 -24 15 -69 15 -128 0 -103 14 -141 60
-165 64 -33 137 -10 170 55 18 35 20 59 20 224 l0 184 -27 32 c-22 27 -27 45
-34 120 -9 109 -28 145 -112 206 -81 60 -186 108 -280 129 -97 21 -320 17
-411 -9 -71 -20 -204 -82 -265 -123 -109 -76 -237 -230 -296 -360 -67 -146
-90 -272 -82 -451 10 -215 68 -369 188 -498 43 -47 73 -89 80 -114 7 -22 17
-44 23 -49 6 -5 90 -46 186 -91 162 -76 175 -80 187 -64 7 10 13 20 13 24 0
12 59 40 85 40 63 0 104 -45 105 -112 l0 -47 175 -91 174 -91 20 20 c11 11 33
24 48 27 24 6 39 3 93 -20 16 -6 49 20 321 255 74 64 160 138 191 165 42 37
57 56 57 76 1 18 10 33 25 43 23 15 25 22 28 135 3 133 10 149 85 205 31 23
42 39 47 68 16 96 128 119 172 36 20 -39 11 -82 -23 -109 -33 -25 -69 -25
-111 0 l-33 21 -37 -30 c-76 -60 -77 -62 -81 -191 -3 -110 -1 -120 19 -148 22
-30 22 -32 6 -57 -15 -23 -23 -26 -54 -22 -35 4 -44 -2 -152 -97 -63 -56 -162
-142 -220 -191 -58 -50 -122 -105 -142 -124 -21 -19 -47 -40 -59 -49 -15 -10
-19 -22 -16 -41 13 -66 -47 -120 -118 -107 -41 8 -78 56 -72 93 4 20 -15 32
-174 113 l-179 91 -40 -23 -40 -23 0 -226 0 -227 29 -12 c37 -15 63 -67 55
-109 -14 -68 -105 -95 -160 -47 -28 23 -33 54 -22 123 2 18 -42 52 -287 223
-334 233 -371 261 -379 293 -4 17 -23 33 -60 51 -133 65 -288 284 -367 519
l-33 97 -137 0 -137 0 -6 -25 c-15 -59 -112 -78 -153 -30 -13 14 -23 33 -23
41 0 11 -20 14 -100 14 -88 0 -105 -3 -130 -22 -25 -18 -33 -20 -55 -10 -18 8
-25 19 -25 40 0 52 50 71 85 32 16 -17 31 -20 116 -20 91 0 99 2 110 22 14 27
49 57 67 58 9 0 12 69 12 313 l0 312 -31 14 c-17 7 -35 24 -41 37 -11 23 -15
24 -119 24 -86 0 -108 -3 -113 -15 -7 -18 -57 -20 -74 -3 -18 18 -15 53 6 71
25 22 45 21 67 -3 16 -17 31 -20 117 -20 83 0 98 2 98 16 0 26 65 84 94 84 42
0 82 -26 100 -65 l17 -35 145 0 144 0 12 28 c152 363 365 596 686 751 46 22
89 42 95 45 8 3 3 12 -12 25 -21 19 -36 21 -156 21 -124 0 -134 -1 -140 -20
-10 -30 -54 -60 -90 -60 -36 0 -80 30 -90 60 -6 19 -16 20 -314 20 l-308 0
-13 -25 c-26 -49 -105 -55 -134 -9 -40 60 -4 134 65 134 36 0 79 -32 79 -58 0
-9 77 -12 308 -12 l308 0 17 34 c32 69 137 67 168 -3 l14 -31 123 0 c125 0
148 -5 189 -42 l22 -20 103 26 c149 38 256 49 393 43 147 -7 230 -24 406 -84
115 -39 142 -45 182 -39 68 10 105 41 171 140 l59 89 -29 25 c-156 130 -466
285 -683 343 -189 49 -179 49 -1409 49 l-1152 0 2 -1941z m415 1071 c17 -19
30 -20 393 -20 367 0 376 0 393 21 21 24 65 23 80 -2 5 -9 7 -28 3 -42 -9 -37
-50 -46 -80 -18 -22 21 -29 21 -396 21 -371 0 -374 0 -397 -22 -19 -18 -28
-20 -51 -12 -30 11 -42 55 -21 80 17 20 56 17 76 -6z"/>
<path d="M832 2435 c-7 -14 -26 -34 -44 -45 l-33 -19 3 -309 3 -309 24 -11
c13 -6 31 -25 40 -42 l16 -30 130 0 131 0 -6 26 c-33 131 -44 335 -25 470 10
72 48 236 64 277 7 16 -4 17 -142 17 l-150 0 -11 -25z"/>
<path d="M1832 1191 c-23 -110 -104 -181 -205 -181 -76 0 -57 -36 60 -117 32
-21 168 -116 303 -209 293 -204 264 -186 295 -178 l25 6 0 229 0 229 -25 6
c-31 8 -75 58 -75 85 0 16 -33 36 -163 98 -220 106 -201 103 -215 32z"/>
</g>
</svg>
