<svg width="678" height="143" viewBox="0 0 678 143" fill="none" xmlns="http://www.w3.org/2000/svg">
<rect width="677.867" height="142.31" rx="8"/>
<g clip-path="url(#clip0_360_688)">
<path d="M134.88 97.8197L104.19 38.1797L92.3999 61.2697L108.59 93.2197L123.41 122.31C129.52 117.41 134.61 111.29 138.31 104.32L134.91 97.7697C134.91 97.7697 134.9 97.7997 134.89 97.8197H134.88Z" fill="url(#paint0_linear_360_688)"/>
<path d="M69.3 38.1797L39.42 96.2297C39.42 96.2297 39.42 96.2197 39.42 96.2097L35.96 102.93C39.53 110.12 44.55 116.47 50.65 121.57L53.35 116.12C53.35 116.12 53.33 116.1 53.32 116.1L68.96 85.2297L87.49 121.21L100.26 98.1197L81.1 61.2697L69.31 38.1797H69.3Z" fill="url(#paint1_linear_360_688)"/>
<path d="M105.7 22.98C104.82 22.69 103.93 22.41 103.04 22.16C98.09 20.77 92.87 20 87.48 20C81.62 20 75.97 20.89 70.64 22.52C69.57 22.85 68.51 23.21 67.47 23.6C45.61 31.75 30 52.82 30 77.48C30 82.67 30.7 87.69 32 92.48L36.33 84.08C36.05 81.92 35.9 79.72 35.9 77.48C35.9 57.84 46.94 40.73 63.14 32.02C66.36 30.29 69.79 28.9 73.37 27.88C77.86 26.6 82.59 25.9 87.48 25.9C91.91 25.9 96.2 26.46 100.3 27.51C103.61 28.36 106.8 29.53 109.82 30.99C127.11 39.33 139.06 57.03 139.06 77.48C139.06 80.48 138.79 83.43 138.3 86.29L142.44 94.28C144.07 88.96 144.96 83.32 144.96 77.48C144.96 52.16 128.49 30.62 105.7 22.98Z" fill="url(#paint2_linear_360_688)"/>
</g>
<g clip-path="url(#clip1_360_688)">
<path d="M432.797 73.0259L441.796 57.5325H455.341V57.9036L440.312 80.0769L456.269 102.992V103.271H442.724L432.797 87.9628L422.87 103.271H409.325V102.992L425.282 80.0769L410.253 57.9036V57.5325H423.798L432.797 73.0259Z" fill="#17125B"/>
<path d="M402.304 56.8529V102.777H390.985V56.8529H402.304ZM389.965 44.1427C389.965 52.9564 403.325 52.9564 403.325 44.1427C403.325 35.3291 389.965 35.3291 389.965 44.1427Z" fill="#17125B"/>
<path d="M347.968 56.7386H358.452L359.287 62.0267C362.812 56.3675 367.544 55.5325 372.183 55.5325C376.914 55.5325 381.46 57.388 383.965 59.8929L378.862 69.7271C376.543 67.7788 374.409 66.7583 370.698 66.7583C364.761 66.7583 359.287 69.9126 359.287 78.3552V102.477H347.968V56.7386Z" fill="#17125B"/>
<path d="M315.877 45.7386L327.195 44.5325V57.521H341.968V67.2624H327.102V87.0236C327.102 91.384 329.515 93.5178 333.04 93.5178C334.803 93.5178 336.844 92.9612 338.514 92.1262L341.668 101.775C338.421 103.074 335.731 103.63 332.298 103.723C322.371 104.094 315.877 98.4349 315.877 87.0236V67.2624H307.341V57.521H315.877V45.7386Z" fill="#17125B"/>
<path d="M290.116 63.9553L290.487 57.6465H301.341V103.385H290.672L290.116 96.705C287.518 102.086 280.374 104.684 275.272 104.776C261.726 104.869 251.707 96.5194 251.707 80.4693C251.707 64.6975 262.19 56.4405 275.55 56.5332C281.673 56.5332 287.518 59.4093 290.116 63.9553ZM276.57 66.6457C269.056 66.6457 263.025 71.7484 263.025 80.4693C263.025 89.1902 269.056 94.3856 276.57 94.3856C294.383 94.3856 294.383 66.6457 276.57 66.6457Z" fill="#17125B"/>
<path d="M233.46 103.475V56.3453L212.307 84.549H209.895L189.206 56.2526V103.475H176.96V38.5325H191.062L211.38 66.4578L231.697 38.5325H245.707V103.475H233.46Z" fill="#17125B"/>
</g>
<path d="M505.668 37.2918C528.027 37.2918 539.16 54.4553 538.974 71.4332C538.788 88.2255 528.49 105.018 505.668 105.018C482.845 105.018 472.269 88.5966 472.269 71.5259C472.269 54.4553 483.216 37.2918 505.668 37.2918ZM505.668 48.4249C490.36 48.4249 484.051 60.764 484.329 71.7115C484.608 82.3806 490.36 93.792 505.668 93.792C520.976 93.792 526.728 82.2879 526.913 71.6187C527.099 60.6712 520.976 48.4249 505.668 48.4249Z" fill="#EB315A"/>
<path d="M592.251 105.018H580.932V81.0818C580.932 74.1236 577.128 68.8354 569.892 68.8354C562.934 68.8354 558.202 74.6803 558.202 81.6384V105.018H546.976V59.1868H557.089L557.831 65.4028C562.47 60.8568 567.109 58.5374 572.861 58.5374C583.623 58.5374 592.251 66.6088 592.251 80.989V105.018Z" fill="#EB315A"/>
<path d="M647.659 84.9784H611.94C612.683 90.6377 617.6 94.7198 625.578 94.7198C629.753 94.7198 635.227 93.1426 637.825 90.4521L645.061 97.5958C640.237 102.606 632.351 105.018 625.393 105.018C609.621 105.018 600.251 95.2764 600.251 80.6179C600.251 66.7016 609.714 56.6819 624.558 56.6819C639.866 56.6819 649.422 66.145 647.659 84.9784ZM612.126 75.608H636.804C636.062 69.6704 631.423 66.7016 624.929 66.7016C618.806 66.7016 613.796 69.6704 612.126 75.608Z" fill="#EB315A"/>
<defs>
<linearGradient id="paint0_linear_360_688" x1="91.2018" y1="117.121" x2="149.635" y2="95.602" gradientUnits="userSpaceOnUse">
<stop stop-color="#17125B"/>
<stop offset="0.740385" stop-color="#EB315A"/>
</linearGradient>
<linearGradient id="paint1_linear_360_688" x1="34.282" y1="116.427" x2="107.418" y2="78.3697" gradientUnits="userSpaceOnUse">
<stop stop-color="#17125B"/>
<stop offset="0.740385" stop-color="#EB315A"/>
</linearGradient>
<linearGradient id="paint2_linear_360_688" x1="27" y1="89.699" x2="106.472" y2="6.69569" gradientUnits="userSpaceOnUse">
<stop stop-color="#17125B"/>
<stop offset="0.740385" stop-color="#EB315A"/>
</linearGradient>
<clipPath id="clip0_360_688">
<rect width="114.96" height="102.31" fill="white" transform="translate(30 20)"/>
</clipPath>
<clipPath id="clip1_360_688">
<rect width="279.309" height="67.2447" fill="white" transform="translate(176.96 37.5325)"/>
</clipPath>
</defs>
</svg>
