<?xml version="1.0" encoding="UTF-8"?>
<svg id="Layer_1" xmlns="http://www.w3.org/2000/svg" version="1.1" viewBox="0 0 647 139.23">
  <!-- Generator: Adobe Illustrator 29.6.1, SVG Export Plug-In . SVG Version: 2.1.1 Build 9)  -->
  <defs>
    <style>
      .st0 {
        fill: none;
        stroke: #666;
        stroke-miterlimit: 10;
      }

      .st1 {
        fill: #373434;
      }

      .st2 {
        isolation: isolate;
      }

      .st3 {
        fill: #e31b23;
      }

      .st4 {
        fill: #ff5800;
      }
    </style>
  </defs>
  <g>
    <path class="st3" d="M169.19,78.14c11.75,0,18.7,7.71,18.7,7.71,8.41,8.2,18.64,7.71,18.64,7.71,0,0,10.31.59,18.62-7.71,8.31-8.31,7.69-18.62,7.69-18.62,0,0,.62-10.29-7.69-18.59-8.31-8.31-18.62-7.69-18.62-7.69,0,0-10.21-.51-18.64,7.69,0,0-6.94,7.77-18.7,7.77h0c-11.75,0-18.67-7.77-18.67-7.77-8.43-8.2-18.62-7.69-18.62-7.69,0,0-10.31-.62-18.62,7.69s-7.69,18.59-7.69,18.59c0,0-.62,10.31,7.69,18.62s18.62,7.71,18.62,7.71c0,0,10.21.49,18.62-7.71,0,0,6.94-7.71,18.67-7.71h0Z"/>
    <path class="st3" d="M91.19,67.47c0-11.75,7.74-18.67,7.74-18.67,8.2-8.43,7.71-18.64,7.71-18.64,0,0,.59-10.31-7.71-18.62-8.31-8.31-18.59-7.71-18.59-7.71h0s-10.31-.59-18.62,7.71c-8.31,8.31-7.69,18.62-7.69,18.62,0,0-.51,10.18,7.69,18.64,0,0,7.74,6.89,7.74,18.67h0c0,11.78-7.74,18.67-7.74,18.67-8.2,8.43-7.69,18.62-7.69,18.62,0,0-.62,10.31,7.69,18.62,8.31,8.31,18.62,7.71,18.62,7.71h0s10.29.59,18.59-7.71c8.31-8.31,7.71-18.62,7.71-18.62,0,0,.49-10.18-7.71-18.62,0,0-7.74-6.89-7.74-18.67h0Z"/>
    <path d="M55.11,67.16c0,14.53-11.78,26.31-26.31,26.31-14.56-.03-26.33-11.78-26.33-26.31s11.78-26.36,26.31-26.36,26.33,11.8,26.33,26.36"/>
  </g>
  <g class="st2">
    <g class="st2">
      <path d="M270.63,46.49c-2.31-1.01-4.12-2.44-5.44-4.29s-1.98-4.02-1.98-6.49h7.54c.16,1.85.9,3.38,2.19,4.57,1.3,1.2,3.12,1.79,5.47,1.79s4.33-.59,5.68-1.76c1.36-1.17,2.04-2.69,2.04-4.54,0-1.44-.42-2.62-1.27-3.52-.84-.91-1.9-1.61-3.15-2.1-1.26-.49-3-1.03-5.22-1.61-2.8-.74-5.08-1.49-6.83-2.26-1.75-.76-3.24-1.95-4.48-3.55s-1.85-3.75-1.85-6.43c0-2.47.62-4.63,1.85-6.49s2.97-3.27,5.19-4.26c2.22-.99,4.8-1.48,7.72-1.48,4.16,0,7.57,1.04,10.23,3.12s4.13,4.93,4.42,8.56h-7.79c-.12-1.56-.87-2.9-2.22-4.02s-3.15-1.67-5.38-1.67c-2.02,0-3.67.52-4.94,1.54-1.28,1.03-1.92,2.51-1.92,4.45,0,1.32.4,2.4,1.21,3.24.8.84,1.82,1.51,3.06,2.01,1.24.49,2.92,1.03,5.07,1.61,2.84.78,5.16,1.57,6.95,2.35s3.32,1.99,4.57,3.62c1.26,1.63,1.88,3.8,1.88,6.52,0,2.18-.59,4.24-1.76,6.18s-2.88,3.49-5.13,4.67c-2.25,1.17-4.89,1.76-7.94,1.76-2.88,0-5.48-.5-7.79-1.51h.02Z"/>
      <path d="M332.67,16.98c-1.11-2.14-2.66-3.76-4.63-4.85-1.98-1.09-4.26-1.64-6.86-1.64-2.84,0-5.38.64-7.6,1.92s-3.97,3.09-5.22,5.44c-1.26,2.35-1.88,5.07-1.88,8.16s.63,5.82,1.88,8.19c1.26,2.37,3,4.19,5.22,5.47s4.76,1.92,7.6,1.92c3.83,0,6.94-1.07,9.33-3.21,2.39-2.14,3.85-5.04,4.39-8.71h-16.13v-5.62h23.67v5.5c-.45,3.34-1.64,6.41-3.55,9.21-1.92,2.8-4.41,5.04-7.48,6.7-3.07,1.67-6.48,2.5-10.23,2.5-4.04,0-7.72-.94-11.06-2.81-3.34-1.87-5.98-4.48-7.94-7.82s-2.94-7.11-2.94-11.31.98-7.97,2.94-11.31,4.61-5.94,7.97-7.82c3.36-1.87,7.03-2.81,11.03-2.81,4.57,0,8.64,1.12,12.2,3.37s6.15,5.43,7.75,9.55h-8.47v-.02Z"/>
      <path d="M391.3,38.8h-17.98l-3.09,8.77h-7.35l15.39-43.01h8.16l15.39,43.01h-7.42l-3.09-8.77h-.01ZM389.33,33.05l-6.98-19.96-7.04,19.96h14.03,0Z"/>
      <path d="M432.86,14.64c2.12,1.11,3.78,2.76,4.97,4.94s1.79,4.82,1.79,7.91v20.08h-6.98v-19.03c0-3.05-.76-5.39-2.29-7.01-1.52-1.63-3.6-2.44-6.24-2.44s-4.73.81-6.27,2.44c-1.54,1.63-2.32,3.97-2.32,7.01v19.03h-7.04V13.52h7.04v3.89c1.15-1.4,2.63-2.49,4.42-3.28,1.79-.78,3.7-1.17,5.72-1.17,2.68,0,5.08.56,7.2,1.67h0Z"/>
      <path d="M448.37,21.31c1.42-2.64,3.36-4.69,5.81-6.15s5.16-2.19,8.13-2.19c2.68,0,5.01.53,7.01,1.58s3.59,2.36,4.79,3.92v-4.94h7.11v34.05h-7.11v-5.07c-1.2,1.61-2.82,2.95-4.88,4.02s-4.41,1.61-7.04,1.61c-2.92,0-5.6-.75-8.03-2.25s-4.36-3.6-5.78-6.3c-1.42-2.7-2.13-5.76-2.13-9.18s.71-6.45,2.13-9.08v-.02ZM472.65,24.4c-.97-1.73-2.24-3.05-3.8-3.96-1.57-.91-3.25-1.36-5.07-1.36s-3.5.44-5.07,1.33-2.83,2.18-3.8,3.89-1.45,3.74-1.45,6.09.48,4.41,1.45,6.18,2.25,3.12,3.83,4.05,3.26,1.39,5.04,1.39,3.5-.45,5.07-1.36,2.83-2.23,3.8-3.99c.97-1.75,1.45-3.8,1.45-6.15s-.49-4.39-1.45-6.12h0Z"/>
      <path d="M497.52,1.85v45.72h-7.04V1.85h7.04Z"/>
      <path d="M537.43,13.52l-20.88,50.05h-7.29l6.92-16.56-13.41-33.49h7.85l9.58,25.95,9.95-25.95h7.29-.01Z"/>
      <path d="M550.96,19.27v18.85c0,1.28.3,2.19.9,2.75.6.56,1.62.83,3.06.83h4.33v5.87h-5.56c-3.17,0-5.6-.74-7.29-2.22s-2.53-3.89-2.53-7.23v-18.85h-4.02v-5.75h4.02V5.05h7.11v8.47h8.28v5.75h-8.3Z"/>
      <path d="M566.1,7.72c-.87-.87-1.3-1.94-1.3-3.21s.43-2.35,1.3-3.21c.87-.87,1.94-1.3,3.21-1.3s2.29.43,3.15,1.3c.87.86,1.3,1.94,1.3,3.21s-.43,2.35-1.3,3.21-1.92,1.3-3.15,1.3-2.35-.43-3.21-1.3ZM572.78,13.52v34.05h-7.04V13.52h7.04Z"/>
      <path d="M581.83,21.28c1.42-2.66,3.39-4.71,5.9-6.15s5.4-2.16,8.65-2.16c4.12,0,7.53.98,10.23,2.94,2.7,1.96,4.52,4.75,5.47,8.37h-7.6c-.62-1.69-1.61-3.01-2.97-3.95s-3.07-1.42-5.13-1.42c-2.88,0-5.18,1.02-6.89,3.06s-2.56,4.89-2.56,8.56.86,6.53,2.56,8.59,4.01,3.09,6.89,3.09c4.08,0,6.78-1.79,8.09-5.38h7.6c-.99,3.46-2.84,6.21-5.56,8.25s-6.1,3.06-10.13,3.06c-3.25,0-6.14-.73-8.65-2.19s-4.48-3.52-5.9-6.18c-1.42-2.66-2.13-5.74-2.13-9.24s.71-6.58,2.13-9.24h0Z"/>
      <path d="M624.28,46.67c-2.12-.97-3.8-2.29-5.04-3.96s-1.9-3.53-1.98-5.59h7.29c.12,1.44.81,2.65,2.07,3.61,1.26.97,2.83,1.45,4.73,1.45s3.51-.38,4.6-1.14c1.09-.76,1.64-1.74,1.64-2.94,0-1.28-.61-2.22-1.82-2.84-1.22-.62-3.14-1.3-5.78-2.04-2.55-.7-4.63-1.38-6.24-2.04s-3-1.67-4.17-3.03-1.76-3.15-1.76-5.38c0-1.81.54-3.47,1.61-4.97s2.61-2.69,4.6-3.55,4.29-1.3,6.89-1.3c3.87,0,6.99.98,9.36,2.94s3.63,4.62,3.8,8h-7.04c-.12-1.52-.74-2.74-1.85-3.65s-2.62-1.36-4.51-1.36-3.27.35-4.26,1.05c-.99.7-1.48,1.63-1.48,2.78,0,.91.33,1.67.99,2.29s1.46,1.1,2.41,1.45c.95.35,2.35.79,4.2,1.33,2.47.66,4.5,1.33,6.09,2.01,1.58.68,2.96,1.68,4.11,3s1.75,3.07,1.79,5.25c0,1.94-.54,3.67-1.61,5.19-1.07,1.52-2.58,2.72-4.54,3.58s-4.25,1.3-6.89,1.3-5.08-.48-7.2-1.45h0Z"/>
    </g>
  </g>
  <g>
    <g class="st2">
      <g class="st2">
        <path class="st1" d="M291.01,128.87c0,.91-.74,1.65-1.64,1.65-.68,0-1.25-.41-1.51-.98l-3.66-8.21h-14.3l-3.7,8.26c-.24.55-.78.93-1.42.93-.87,0-1.57-.71-1.57-1.57,0-.21.05-.44.14-.63l11.41-25.35c.6-1.34,1.3-1.95,2.45-1.95s1.85.62,2.45,1.95l11.21,25.24c.1.19.14.43.14.66h0ZM282.91,118.42l-5.84-13.09-5.86,13.09h11.7,0Z"/>
      </g>
    </g>
    <g class="st2">
      <g class="st2">
        <path class="st1" d="M455.93,115.79c0,6.93,4.71,11.86,11.68,11.86,2.7,0,5.3-.78,7.33-1.95.19-.08.42-.14.65-.14.86,0,1.56.7,1.56,1.55,0,.62-.36,1.16-.88,1.4-2.16,1.27-5.26,2.18-8.66,2.18-8.95,0-15.31-6.35-15.31-14.91s6.35-14.91,15.31-14.91c3.38,0,6.48.9,8.64,2.16.52.27.89.79.89,1.42,0,.86-.7,1.55-1.56,1.55-.24,0-.46-.06-.66-.15-2.01-1.18-4.6-1.94-7.31-1.94-6.97,0-11.68,4.93-11.68,11.86v.02Z"/>
        <path class="st1" d="M480.61,119.71c0-6.2,4.63-10.99,11-10.99s11,4.78,11,10.99-4.64,11-11,11-11-4.79-11-11h0ZM499.26,119.71c0-4.51-3.27-7.94-7.66-7.94s-7.66,3.42-7.66,7.94,3.27,7.95,7.66,7.95,7.66-3.42,7.66-7.95Z"/>
        <path class="st1" d="M538.68,116.64v12.27c0,.89-.71,1.62-1.59,1.62s-1.59-.73-1.59-1.62v-10.95c0-4.65-2.27-6.18-5.04-6.18s-5.66,1.95-5.66,6.39v10.75c0,.89-.72,1.62-1.6,1.62s-1.59-.73-1.59-1.62v-11.23c0-4.24-2.13-5.91-5.03-5.91s-5.67,1.95-5.67,6.39v10.75c0,.89-.71,1.62-1.59,1.62s-1.59-.73-1.59-1.62v-18.39c0-.89.71-1.62,1.59-1.62s1.59.73,1.59,1.62v2.51c.72-1.89,2.7-4.31,6.69-4.31,3.18,0,5.73,1.69,6.75,4.66,1.13-2.59,3.54-4.66,7.13-4.66,4,0,7.21,2.73,7.21,7.92h-.01Z"/>
        <path class="st1" d="M566.48,119.71c0,6.2-4.2,11-10.35,11-3.65,0-6.4-1.78-7.99-4.57v11.47c0,.89-.71,1.62-1.59,1.62s-1.59-.73-1.59-1.62v-27.23c0-.89.71-1.62,1.59-1.62s1.59.73,1.59,1.62v2.9c1.59-2.78,4.34-4.55,7.99-4.55,6.15,0,10.35,4.78,10.35,10.99h0ZM563.14,119.71c0-4.54-3.18-8.09-7.6-8.09s-7.56,3.69-7.56,8.09,3.24,8.09,7.56,8.09,7.6-3.53,7.6-8.09Z"/>
        <path class="st1" d="M588.99,117.01v11.89c0,.89-.72,1.62-1.6,1.62s-1.59-.73-1.59-1.62v-2.74c-1.29,2.61-4.08,4.54-7.67,4.54-3.8,0-7.34-2.13-7.34-6.56s3.67-6.63,8.91-6.63c1.87,0,3.93.33,6.1,1.08v-1.42c0-3.9-1.83-5.55-5.89-5.55-2.09,0-3.84.57-5.16,1.33-.55.24-.85.39-1.34.39-.63,0-1.26-.48-1.26-1.33,0-.56.3-1.1,1.13-1.51,1.69-.93,4.21-1.78,7.22-1.78,5.79,0,8.49,2.4,8.49,8.29h0ZM585.79,121.42v-.62c-2-.78-4.05-1.12-5.75-1.12-3.99,0-6.07,1.5-6.07,4.27s2.06,4.15,4.73,4.15c3.97,0,7.09-2.76,7.09-6.67h0Z"/>
        <path class="st1" d="M613.88,116.64v12.27c0,.89-.71,1.62-1.59,1.62s-1.59-.73-1.59-1.62v-10.95c0-4.65-2.77-6.18-5.81-6.18s-6.45,1.95-6.45,6.39v10.75c0,.89-.71,1.62-1.59,1.62s-1.59-.73-1.59-1.62v-18.39c0-.89.71-1.62,1.59-1.62s1.59.73,1.59,1.62v2.51c.72-1.89,3.11-4.31,7.32-4.31s8.13,2.73,8.13,7.92h0Z"/>
        <path class="st1" d="M636.43,108.89c1.19,0,1.81,1.14,1.37,2.18l-8.1,18.73c-2.96,6.85-4.72,9.41-8.28,9.41-.83,0-1.35-.12-2.15-.37-.63-.19-1.1-.75-1.1-1.43,0-.83.7-1.51,1.53-1.48.7.12,1.18.24,1.85.24,1.69,0,2.56-1.12,4.95-6.61l-8.58-18.31c-.11-.24-.16-.46-.16-.71,0-.91.74-1.65,1.65-1.65.68,0,1.26.41,1.53,1.01l7.33,15.84,6.5-15.58c.34-.84.9-1.26,1.66-1.26h0Z"/>
      </g>
    </g>
    <path class="st4" d="M370.49,121.06c-1,.16-1.71.44-2.13.83s-.63.94-.63,1.64c0,.89.31,1.62.93,2.19s1.48.85,2.59.85c.89,0,1.68-.21,2.37-.63s1.24-.99,1.64-1.72c.41-.73.61-1.56.61-2.51v-.89h-1.38c-1.67,0-3.01.08-4.01.24h.01ZM390.69,97.32h-28.2c-2.12,0-3.83,1.71-3.83,3.83v28.2c0,2.12,1.71,3.83,3.83,3.83h28.2c2.11,0,3.83-1.71,3.83-3.83v-28.2c0-2.12-1.71-3.83-3.83-3.83ZM380.69,127.37c0,.84-.2,1.48-.61,1.92-.41.45-.98.67-1.74.67s-1.34-.22-1.76-.67c-.42-.44-.63-1.09-.63-1.92v-.87c-.2.5-.46.97-.79,1.38-.55.69-1.25,1.22-2.09,1.6s-1.8.57-2.87.57c-1.43,0-2.71-.28-3.83-.83s-2-1.3-2.63-2.25c-.63-.94-.95-2.01-.95-3.2,0-1.46.38-2.61,1.13-3.46.76-.85,1.98-1.47,3.69-1.84,1.7-.38,3.98-.57,6.84-.57h1.42v-.85c0-1.35-.3-2.32-.89-2.91-.6-.6-1.59-.89-3-.89-.78,0-1.63.1-2.53.28-.91.19-1.86.51-2.86.97-.51.24-.97.31-1.36.2-.39-.11-.7-.33-.91-.67-.22-.34-.33-.71-.33-1.11s.11-.8.33-1.19.58-.68,1.09-.87c1.24-.51,2.44-.88,3.58-1.09,1.15-.22,2.19-.32,3.14-.32,1.94,0,3.54.3,4.8.89,1.26.6,2.19,1.49,2.81,2.69s.93,2.75.93,4.64v9.72l.02-.02ZM389.22,127.17c0,.86-.22,1.54-.65,2.02-.43.49-1.07.73-1.9.73s-1.43-.24-1.86-.73c-.43-.49-.65-1.16-.65-2.02v-14.86c0-.89.22-1.57.65-2.04.43-.47,1.05-.71,1.86-.71s1.44.24,1.88.71.67,1.15.67,2.04v14.86h0ZM388.9,105.08c-.51.47-1.26.71-2.23.71s-1.68-.23-2.21-.71c-.53-.47-.79-1.13-.79-1.96s.26-1.53.79-1.98c.53-.46,1.26-.69,2.21-.69s1.71.23,2.23.69c.51.46.77,1.12.77,1.98s-.26,1.49-.77,1.96Z"/>
    <path d="M300.21,130.71c-.03-.06-.07-.11-.11-.17,0,0,.02.02.02.04h0s.05.09.08.13h.01Z"/>
    <path class="st4" d="M316.89,113.93l-4.41-.93c-1.57-.32-2.67-.78-3.32-1.36s-.97-1.36-.97-2.33c0-.86.24-1.61.71-2.25.47-.63,1.15-1.13,2.05-1.48.89-.35,1.96-.53,3.2-.53s2.29.12,3.32.36,2.04.65,3.04,1.21c.57.32,1.07.46,1.52.41.45-.05.82-.23,1.11-.53.3-.3.49-.65.57-1.07.08-.42.05-.84-.1-1.28-.15-.43-.44-.8-.87-1.09-1.16-.78-2.47-1.38-3.93-1.78-1.46-.41-3-.61-4.62-.61s-3.15.21-4.51.63c-1.36.42-2.54,1.02-3.52,1.8-.99.78-1.75,1.71-2.29,2.79-.54,1.08-.81,2.28-.81,3.6,0,2.11.63,3.8,1.88,5.08,1.26,1.28,3.17,2.19,5.73,2.73l4.45.93c1.67.35,2.85.8,3.54,1.34s1.03,1.28,1.03,2.23c0,1.13-.49,2.06-1.46,2.77-.97.72-2.52,1.07-4.66,1.07-1.46,0-2.85-.16-4.17-.49-1.32-.32-2.58-.84-3.77-1.54-.51-.32-.99-.45-1.42-.36-.43.08-.79.29-1.07.63-.28.34-.46.73-.53,1.17-.07.45,0,.9.18,1.36.19.46.53.85,1.01,1.17.84.54,1.78.99,2.83,1.36,1.05.36,2.17.63,3.36.81,1.19.18,2.37.26,3.56.26,1.73,0,3.28-.2,4.66-.61s2.56-.99,3.54-1.74c.99-.76,1.74-1.66,2.27-2.71s.79-2.23.79-3.52c0-2.02-.65-3.64-1.96-4.86s-3.3-2.11-5.97-2.67v.03h.01Z"/>
    <path class="st4" d="M339.87,125.59c-.27.03-.58.08-.93.16s-.76.12-1.21.12c-1.27,0-2.19-.32-2.75-.97-.57-.65-.85-1.62-.85-2.92v-8.34h4.29c.65,0,1.15-.17,1.5-.51s.53-.8.53-1.4-.18-1.09-.53-1.42c-.35-.32-.85-.49-1.5-.49h-4.29v-3.69c0-.84-.22-1.47-.65-1.9s-1.05-.65-1.86-.65-1.44.22-1.88.65c-.45.43-.67,1.07-.67,1.9v3.69h-2.11c-.65,0-1.15.16-1.5.49-.35.32-.53.8-.53,1.42s.18,1.06.53,1.4.85.51,1.5.51h2.11v8.63c0,1.7.28,3.12.85,4.27.57,1.15,1.44,2.02,2.61,2.61,1.17.59,2.64.89,4.39.89.43,0,.93-.05,1.5-.14s1.03-.2,1.38-.3c.46-.16.78-.45.95-.87s.26-.9.26-1.44c0-.7-.11-1.17-.32-1.4-.22-.23-.49-.33-.81-.3h-.01Z"/>
    <path class="st4" d="M355.2,109.86c-.34-.34-.79-.48-1.36-.43-1.84.16-3.31.66-4.41,1.5-.8.6-1.4,1.41-1.82,2.42v-1.29c0-.84-.22-1.47-.65-1.9s-1.04-.65-1.82-.65-1.39.22-1.82.65-.65,1.07-.65,1.9v15.31c0,.84.22,1.48.67,1.92.45.45,1.09.67,1.92.67s1.47-.22,1.9-.67.65-1.09.65-1.92v-8.38c0-1.54.42-2.73,1.25-3.58.84-.85,2.08-1.36,3.73-1.52l.89-.08c.73-.08,1.28-.33,1.64-.75.36-.42.52-.96.47-1.64-.05-.7-.25-1.22-.59-1.56h0Z"/>
    <g>
      <path class="st4" d="M416.39,109.98c-.35-.31-.82-.47-1.42-.47-.68,0-1.21.14-1.6.43-.39.28-.74.8-1.03,1.56l-5.01,12.19-4.87-12.15c-.3-.78-.63-1.32-1.01-1.6s-.88-.43-1.5-.43c-.73,0-1.3.16-1.72.47s-.66.72-.73,1.23.02,1.07.26,1.66l6.44,14.94c.32.73.74,1.27,1.23,1.62.5.35,1.09.53,1.76.53s1.3-.18,1.8-.53.9-.89,1.19-1.62l6.56-14.98c.27-.59.36-1.14.28-1.64s-.3-.9-.65-1.21h.02Z"/>
      <path class="st4" d="M436.32,125.07c-.26-.27-.6-.43-1.03-.47-.43-.04-.93.1-1.5.43-.78.43-1.61.74-2.49.91-.88.18-1.67.26-2.37.26-2.02,0-3.56-.55-4.6-1.64-.82-.87-1.32-2.09-1.49-3.66h12.24c.62,0,1.1-.13,1.44-.38.34-.26.51-.63.51-1.11,0-1.54-.21-2.92-.63-4.15s-1.03-2.27-1.82-3.14c-.8-.86-1.76-1.52-2.87-1.98-1.12-.46-2.38-.69-3.79-.69-1.92,0-3.62.44-5.12,1.32s-2.67,2.09-3.52,3.62c-.85,1.54-1.28,3.33-1.28,5.39s.44,3.93,1.32,5.47c.88,1.54,2.13,2.73,3.75,3.56,1.62.84,3.55,1.26,5.79,1.26,1.05,0,2.19-.14,3.42-.43,1.23-.28,2.31-.72,3.26-1.32.49-.3.83-.65,1.03-1.05.2-.41.28-.8.22-1.2-.05-.39-.21-.72-.47-.99h0ZM425.22,113.67c.8-.53,1.76-.79,2.89-.79,1.03,0,1.88.22,2.57.67s1.21,1.09,1.58,1.92c.3.69.47,1.54.52,2.51h-9.93c.1-.77.27-1.47.54-2.09.42-.96,1.03-1.7,1.82-2.23h0Z"/>
    </g>
  </g>
  <line class="st0" x1="263.21" y1="78.06" x2="644.5" y2="78.06"/>
</svg>