<svg width="151" height="40" viewBox="0 0 151 40" fill="none" xmlns="http://www.w3.org/2000/svg">
<path d="M138.688 34.8922C137.559 34.8922 136.578 34.7122 135.743 34.3523C134.909 33.9923 134.254 33.4933 133.78 32.8552C133.305 32.2171 133.035 31.4972 132.97 30.6955H136.259C136.34 31.0064 136.48 31.2927 136.676 31.5545C136.872 31.7999 137.134 31.9962 137.461 32.1435C137.788 32.2908 138.181 32.3644 138.639 32.3644C139.081 32.3644 139.441 32.3071 139.719 32.1926C139.997 32.0617 140.202 31.8899 140.333 31.6772C140.48 31.4645 140.554 31.2436 140.554 31.0146C140.554 30.671 140.455 30.4092 140.259 30.2292C140.063 30.0329 139.776 29.8774 139.4 29.7629C139.024 29.6484 138.566 29.5338 138.026 29.4193C137.437 29.3048 136.856 29.1657 136.283 29.0021C135.727 28.8221 135.228 28.6012 134.786 28.3395C134.344 28.0777 133.993 27.7423 133.731 27.3332C133.469 26.9242 133.338 26.417 133.338 25.8116C133.338 25.0753 133.534 24.4209 133.927 23.8482C134.32 23.2592 134.892 22.7929 135.645 22.4493C136.398 22.1057 137.306 21.9339 138.369 21.9339C139.858 21.9339 141.036 22.2693 141.903 22.9402C142.77 23.611 143.286 24.5354 143.449 25.7134H140.333C140.234 25.3371 140.014 25.0426 139.67 24.8299C139.343 24.6009 138.901 24.4863 138.345 24.4863C137.756 24.4863 137.306 24.5927 136.995 24.8054C136.684 25.0181 136.529 25.2962 136.529 25.6398C136.529 25.8689 136.627 26.0734 136.823 26.2534C137.036 26.4333 137.33 26.5888 137.707 26.7197C138.083 26.8342 138.541 26.9487 139.081 27.0633C140.03 27.2596 140.864 27.4887 141.584 27.7504C142.304 27.9959 142.869 28.3558 143.278 28.8303C143.687 29.2884 143.891 29.9592 143.891 30.8428C143.891 31.6281 143.679 32.3317 143.253 32.9534C142.828 33.5588 142.222 34.0332 141.437 34.3768C140.668 34.7204 139.752 34.8922 138.688 34.8922Z" fill="#283618"/>
<path d="M111.755 34.5977V22.2284H114.676L114.946 23.8728C115.339 23.2838 115.854 22.8175 116.492 22.4739C117.147 22.1139 117.891 21.9339 118.725 21.9339C119.347 21.9339 119.904 22.0157 120.394 22.1794C120.885 22.343 121.319 22.5802 121.695 22.8911C122.088 23.202 122.407 23.5946 122.652 24.0691C123.11 23.3983 123.708 22.8747 124.444 22.4984C125.18 22.1221 125.982 21.9339 126.849 21.9339C127.929 21.9339 128.829 22.1548 129.549 22.5966C130.268 23.022 130.808 23.6437 131.168 24.4618C131.545 25.2799 131.733 26.2861 131.733 27.4805V34.5977H128.444V27.775C128.444 26.7933 128.248 26.0407 127.855 25.5171C127.479 24.9935 126.89 24.7317 126.088 24.7317C125.565 24.7317 125.098 24.8626 124.689 25.1244C124.28 25.3862 123.961 25.7625 123.732 26.2534C123.519 26.7442 123.413 27.3332 123.413 28.0204V34.5977H120.1V27.775C120.1 26.7933 119.904 26.0407 119.511 25.5171C119.118 24.9935 118.513 24.7317 117.695 24.7317C117.187 24.7317 116.729 24.8626 116.32 25.1244C115.928 25.3862 115.617 25.7625 115.388 26.2534C115.175 26.7442 115.069 27.3332 115.069 28.0204V34.5977H111.755Z" fill="#283618"/>
<path d="M102.94 34.5977V22.2284H105.885L106.205 24.5109C106.499 23.9709 106.867 23.5128 107.309 23.1365C107.767 22.7602 108.282 22.4657 108.855 22.253C109.444 22.0403 110.09 21.9339 110.794 21.9339V25.4435H109.665C109.174 25.4435 108.716 25.5007 108.291 25.6153C107.882 25.7298 107.522 25.918 107.211 26.1797C106.9 26.4252 106.663 26.7688 106.499 27.2105C106.335 27.6523 106.254 28.2086 106.254 28.8794V34.5977H102.94Z" fill="#283618"/>
<path d="M93.9595 34.8922C92.9287 34.8922 92.0779 34.7286 91.4071 34.4014C90.7363 34.0578 90.2373 33.6078 89.91 33.0516C89.5992 32.4789 89.4437 31.849 89.4437 31.1618C89.4437 30.4092 89.6319 29.7465 90.0082 29.1739C90.4009 28.6012 90.9817 28.1513 91.7507 27.8241C92.536 27.4968 93.5177 27.3332 94.6958 27.3332H97.7635C97.7635 26.7278 97.6817 26.2288 97.5181 25.8361C97.3545 25.4271 97.1009 25.1244 96.7573 24.9281C96.4137 24.7317 95.9556 24.6336 95.3829 24.6336C94.7612 24.6336 94.2295 24.7727 93.7877 25.0508C93.3623 25.3126 93.1005 25.7216 93.0023 26.2779H89.7873C89.8691 25.3944 90.1555 24.6336 90.6463 23.9955C91.1535 23.341 91.8161 22.8338 92.6342 22.4739C93.4687 22.1139 94.3931 21.9339 95.4075 21.9339C96.5691 21.9339 97.5754 22.1303 98.4262 22.523C99.277 22.9156 99.9314 23.4801 100.39 24.2164C100.848 24.9526 101.077 25.8607 101.077 26.9405V34.5977H98.2789L97.9108 32.708C97.7308 33.0352 97.5181 33.3297 97.2727 33.5915C97.0273 33.8533 96.741 34.0823 96.4137 34.2787C96.0865 34.475 95.7184 34.6223 95.3093 34.7204C94.9003 34.835 94.4503 34.8922 93.9595 34.8922ZM94.7448 32.3398C95.1702 32.3398 95.5466 32.2662 95.8738 32.119C96.2174 31.9553 96.5119 31.7426 96.7573 31.4809C97.0027 31.2027 97.1909 30.8918 97.3218 30.5483C97.469 30.1883 97.5672 29.8038 97.6163 29.3948V29.3702H95.0884C94.5812 29.3702 94.164 29.4357 93.8368 29.5666C93.5259 29.6811 93.2969 29.8529 93.1496 30.082C93.0024 30.311 92.9287 30.5728 92.9287 30.8673C92.9287 31.1945 93.0024 31.4645 93.1496 31.6772C93.2969 31.8899 93.5096 32.0535 93.7877 32.168C94.0658 32.2826 94.3849 32.3398 94.7448 32.3398Z" fill="#283618"/>
<path d="M78.5054 34.5977V17.4182H89.6966V20.0933H81.8186V24.6826H88.1259V27.2841H81.8186V34.5977H78.5054Z" fill="#283618"/>
<path d="M66.2855 34.8922C65.042 34.8922 63.9376 34.6304 62.9723 34.1069C62.0233 33.5669 61.2789 32.8225 60.739 31.8735C60.2154 30.9082 59.9536 29.7956 59.9536 28.5358C59.9536 27.2432 60.2154 26.1061 60.739 25.1244C61.2625 24.1264 61.9988 23.3492 62.9478 22.7929C63.9131 22.2203 65.0257 21.9339 66.2855 21.9339C67.5126 21.9339 68.5843 22.2039 69.5005 22.7438C70.4168 23.2838 71.1285 24.0118 71.6357 24.9281C72.1429 25.8443 72.3965 26.8833 72.3965 28.0449C72.3965 28.2086 72.3965 28.3967 72.3965 28.6094C72.3965 28.8058 72.3802 29.0103 72.3474 29.223H62.3097V27.2105H69.0588C69.0097 26.4088 68.7234 25.7789 68.1998 25.3208C67.6926 24.8626 67.0545 24.6336 66.2855 24.6336C65.7292 24.6336 65.2138 24.7645 64.7393 25.0263C64.2649 25.2717 63.8885 25.6562 63.6104 26.1797C63.3486 26.7033 63.2177 27.3659 63.2177 28.1677V28.8794C63.2177 29.5502 63.3404 30.1392 63.5859 30.6464C63.8476 31.1373 64.2076 31.5218 64.6657 31.7999C65.1238 32.0617 65.6556 32.1926 66.261 32.1926C66.8663 32.1926 67.3654 32.0617 67.758 31.7999C68.1671 31.5381 68.4698 31.2027 68.6661 30.7937H72.0529C71.8239 31.5627 71.4394 32.258 70.8994 32.8798C70.3595 33.5015 69.6969 33.9923 68.9115 34.3523C68.1262 34.7122 67.2508 34.8922 66.2855 34.8922Z" fill="#283618"/>
<path d="M56.8386 34.5977C55.9715 34.5977 55.2107 34.4668 54.5562 34.205C53.9181 33.9269 53.4191 33.477 53.0591 32.8552C52.6992 32.2171 52.5192 31.35 52.5192 30.2537V25.0017H50.4086V22.2284H52.5192L52.8873 18.8662H55.8324V22.2284H59.0965V25.0017H55.8324V30.3028C55.8324 30.8591 55.9551 31.2436 56.2005 31.4563C56.446 31.669 56.8632 31.7754 57.4522 31.7754H59.072V34.5977H56.8386Z" fill="#283618"/>
<path d="M42.4304 34.8922C41.3997 34.8922 40.5489 34.7286 39.878 34.4014C39.2072 34.0578 38.7082 33.6078 38.381 33.0516C38.0701 32.4789 37.9147 31.849 37.9147 31.1618C37.9147 30.4092 38.1028 29.7465 38.4791 29.1739C38.8718 28.6012 39.4527 28.1513 40.2216 27.8241C41.007 27.4968 41.9887 27.3332 43.1667 27.3332H46.2345C46.2345 26.7278 46.1527 26.2288 45.9891 25.8361C45.8254 25.4271 45.5718 25.1244 45.2283 24.9281C44.8847 24.7317 44.4265 24.6336 43.8539 24.6336C43.2322 24.6336 42.7004 24.7727 42.2586 25.0508C41.8332 25.3126 41.5715 25.7216 41.4733 26.2779H38.2583C38.3401 25.3944 38.6264 24.6336 39.1172 23.9955C39.6244 23.341 40.2871 22.8338 41.1052 22.4739C41.9396 22.1139 42.864 21.9339 43.8784 21.9339C45.0401 21.9339 46.0463 22.1303 46.8971 22.523C47.7479 22.9156 48.4024 23.4801 48.8605 24.2164C49.3186 24.9526 49.5477 25.8607 49.5477 26.9405V34.5977H46.7499L46.3817 32.708C46.2018 33.0352 45.9891 33.3297 45.7436 33.5915C45.4982 33.8533 45.2119 34.0823 44.8847 34.2787C44.5574 34.475 44.1893 34.6223 43.7803 34.7204C43.3712 34.835 42.9213 34.8922 42.4304 34.8922ZM43.2158 32.3398C43.6412 32.3398 44.0175 32.2662 44.3447 32.119C44.6883 31.9553 44.9828 31.7426 45.2283 31.4809C45.4737 31.2027 45.6618 30.8918 45.7927 30.5483C45.94 30.1883 46.0381 29.8038 46.0872 29.3948V29.3702H43.5594C43.0522 29.3702 42.635 29.4357 42.3077 29.5666C41.9969 29.6811 41.7678 29.8529 41.6205 30.082C41.4733 30.311 41.3997 30.5728 41.3997 30.8673C41.3997 31.1945 41.4733 31.4645 41.6205 31.6772C41.7678 31.8899 41.9805 32.0535 42.2586 32.168C42.5368 32.2826 42.8558 32.3398 43.2158 32.3398Z" fill="#283618"/>
<path d="M27.251 39.997L30.2452 33.2234H29.5089L24.5514 22.2284H28.1591L31.6932 30.2047L34.8837 22.2284H38.3932L30.7606 39.997H27.251Z" fill="#283618"/>
<path d="M17.1309 34.8922C16.1001 34.8922 15.2493 34.7286 14.5785 34.4014C13.9077 34.0578 13.4086 33.6078 13.0814 33.0516C12.7705 32.4789 12.6151 31.849 12.6151 31.1618C12.6151 30.4092 12.8033 29.7465 13.1796 29.1739C13.5723 28.6012 14.1531 28.1513 14.9221 27.8241C15.7074 27.4968 16.6891 27.3332 17.8671 27.3332H20.9349C20.9349 26.7278 20.8531 26.2288 20.6895 25.8361C20.5259 25.4271 20.2723 25.1244 19.9287 24.9281C19.5851 24.7317 19.127 24.6336 18.5543 24.6336C17.9326 24.6336 17.4008 24.7727 16.9591 25.0508C16.5337 25.3126 16.2719 25.7216 16.1737 26.2779H12.9587C13.0405 25.3944 13.3268 24.6336 13.8177 23.9955C14.3249 23.341 14.9875 22.8338 15.8056 22.4739C16.64 22.1139 17.5645 21.9339 18.5789 21.9339C19.7405 21.9339 20.7468 22.1303 21.5976 22.523C22.4484 22.9156 23.1028 23.4801 23.5609 24.2164C24.0191 24.9526 24.2481 25.8607 24.2481 26.9405V34.5977H21.4503L21.0822 32.708C20.9022 33.0352 20.6895 33.3297 20.4441 33.5915C20.1987 33.8533 19.9123 34.0823 19.5851 34.2787C19.2579 34.475 18.8897 34.6223 18.4807 34.7204C18.0717 34.835 17.6217 34.8922 17.1309 34.8922ZM17.9162 32.3398C18.3416 32.3398 18.7179 32.2662 19.0452 32.119C19.3888 31.9553 19.6833 31.7426 19.9287 31.4809C20.1741 31.2027 20.3623 30.8918 20.4932 30.5483C20.6404 30.1883 20.7386 29.8038 20.7877 29.3948V29.3702H18.2598C17.7526 29.3702 17.3354 29.4357 17.0082 29.5666C16.6973 29.6811 16.4682 29.8529 16.321 30.082C16.1737 30.311 16.1001 30.5728 16.1001 30.8673C16.1001 31.1945 16.1737 31.4645 16.321 31.6772C16.4682 31.8899 16.6809 32.0535 16.9591 32.168C17.2372 32.2826 17.5563 32.3398 17.9162 32.3398Z" fill="#283618"/>
<path d="M5.57108 34.8922C4.4585 34.8922 3.47681 34.6795 2.62602 34.2541C1.79158 33.8287 1.1453 33.207 0.687182 32.3889C0.229061 31.5545 0 30.5483 0 29.3702H3.3132C3.3132 29.8938 3.38683 30.3519 3.53408 30.7446C3.69769 31.1209 3.93494 31.4154 4.2458 31.6281C4.57303 31.8244 4.99025 31.9226 5.49746 31.9226C5.9883 31.9226 6.38098 31.8326 6.67548 31.6527C6.98635 31.4563 7.20723 31.1864 7.33812 30.8428C7.48538 30.4828 7.559 30.0574 7.559 29.5666V17.4182H10.8722V29.5666C10.8722 31.2845 10.3895 32.6016 9.42421 33.5179C8.47525 34.4341 7.19087 34.8922 5.57108 34.8922Z" fill="#283618"/>
<path d="M131.032 19.5997C145.43 18.3946 149.748 14.056 150.632 0C136.218 1.14546 131.877 5.4129 131.032 19.5997Z" fill="#EBAE00"/>
<path d="M129.498 19.5997C129.208 11.707 126.824 9.24226 118.42 8.52161C118.88 16.7107 121.333 19.1167 129.498 19.5997Z" fill="#43AA5C"/>
</svg>
